<svg xmlns="http://www.w3.org/2000/svg" viewBox="0 0 35 35" shape-rendering="crispEdges"><rect width="35" height="35" fill="#fff"/><path fill="#14142b" d="M1 1h1v1h-1zM2 1h1v1h-1zM3 1h1v1h-1zM4 1h1v1h-1zM5 1h1v1h-1zM6 1h1v1h-1zM7 1h1v1h-1zM10 1h1v1h-1zM11 1h1v1h-1zM12 1h1v1h-1zM13 1h1v1h-1zM15 1h1v1h-1zM16 1h1v1h-1zM18 1h1v1h-1zM19 1h1v1h-1zM20 1h1v1h-1zM23 1h1v1h-1zM24 1h1v1h-1zM27 1h1v1h-1zM28 1h1v1h-1zM29 1h1v1h-1zM30 1h1v1h-1zM31 1h1v1h-1zM32 1h1v1h-1zM33 1h1v1h-1zM1 2h1v1h-1zM7 2h1v1h-1zM13 2h1v1h-1zM16 2h1v1h-1zM19 2h1v1h-1zM24 2h1v1h-1zM25 2h1v1h-1zM27 2h1v1h-1zM33 2h1v1h-1zM1 3h1v1h-1zM3 3h1v1h-1zM4 3h1v1h-1zM5 3h1v1h-1zM7 3h1v1h-1zM10 3h1v1h-1zM11 3h1v1h-1zM15 3h1v1h-1zM16 3h1v1h-1zM18 3h1v1h-1zM20 3h1v1h-1zM21 3h1v1h-1zM24 3h1v1h-1zM27 3h1v1h-1zM29 3h1v1h-1zM30 3h1v1h-1zM31 3h1v1h-1zM33 3h1v1h-1zM1 4h1v1h-1zM3 4h1v1h-1zM4 4h1v1h-1zM5 4h1v1h-1zM7 4h1v1h-1zM11 4h1v1h-1zM12 4h1v1h-1zM14 4h1v1h-1zM16 4h1v1h-1zM18 4h1v1h-1zM20 4h1v1h-1zM23 4h1v1h-1zM25 4h1v1h-1zM27 4h1v1h-1zM29 4h1v1h-1zM30 4h1v1h-1zM31 4h1v1h-1zM33 4h1v1h-1zM1 5h1v1h-1zM3 5h1v1h-1zM4 5h1v1h-1zM5 5h1v1h-1zM7 5h1v1h-1zM11 5h1v1h-1zM13 5h1v1h-1zM17 5h1v1h-1zM19 5h1v1h-1zM21 5h1v1h-1zM22 5h1v1h-1zM24 5h1v1h-1zM27 5h1v1h-1zM29 5h1v1h-1zM30 5h1v1h-1zM31 5h1v1h-1zM33 5h1v1h-1zM1 6h1v1h-1zM7 6h1v1h-1zM9 6h1v1h-1zM10 6h1v1h-1zM12 6h1v1h-1zM13 6h1v1h-1zM14 6h1v1h-1zM15 6h1v1h-1zM18 6h1v1h-1zM20 6h1v1h-1zM21 6h1v1h-1zM23 6h1v1h-1zM25 6h1v1h-1zM27 6h1v1h-1zM33 6h1v1h-1zM1 7h1v1h-1zM2 7h1v1h-1zM3 7h1v1h-1zM4 7h1v1h-1zM5 7h1v1h-1zM6 7h1v1h-1zM7 7h1v1h-1zM9 7h1v1h-1zM11 7h1v1h-1zM13 7h1v1h-1zM15 7h1v1h-1zM17 7h1v1h-1zM19 7h1v1h-1zM21 7h1v1h-1zM23 7h1v1h-1zM25 7h1v1h-1zM27 7h1v1h-1zM28 7h1v1h-1zM29 7h1v1h-1zM30 7h1v1h-1zM31 7h1v1h-1zM32 7h1v1h-1zM33 7h1v1h-1zM10 8h1v1h-1zM15 8h1v1h-1zM18 8h1v1h-1zM19 8h1v1h-1zM20 8h1v1h-1zM21 8h1v1h-1zM22 8h1v1h-1zM25 8h1v1h-1zM1 9h1v1h-1zM4 9h1v1h-1zM6 9h1v1h-1zM7 9h1v1h-1zM9 9h1v1h-1zM11 9h1v1h-1zM12 9h1v1h-1zM13 9h1v1h-1zM14 9h1v1h-1zM15 9h1v1h-1zM16 9h1v1h-1zM17 9h1v1h-1zM19 9h1v1h-1zM21 9h1v1h-1zM22 9h1v1h-1zM25 9h1v1h-1zM26 9h1v1h-1zM28 9h1v1h-1zM2 10h1v1h-1zM3 10h1v1h-1zM5 10h1v1h-1zM9 10h1v1h-1zM10 10h1v1h-1zM11 10h1v1h-1zM13 10h1v1h-1zM15 10h1v1h-1zM17 10h1v1h-1zM21 10h1v1h-1zM22 10h1v1h-1zM25 10h1v1h-1zM26 10h1v1h-1zM27 10h1v1h-1zM28 10h1v1h-1zM32 10h1v1h-1zM33 10h1v1h-1zM1 11h1v1h-1zM2 11h1v1h-1zM3 11h1v1h-1zM4 11h1v1h-1zM5 11h1v1h-1zM7 11h1v1h-1zM8 11h1v1h-1zM9 11h1v1h-1zM10 11h1v1h-1zM12 11h1v1h-1zM13 11h1v1h-1zM18 11h1v1h-1zM20 11h1v1h-1zM21 11h1v1h-1zM28 11h1v1h-1zM29 11h1v1h-1zM31 11h1v1h-1zM33 11h1v1h-1zM1 12h1v1h-1zM2 12h1v1h-1zM3 12h1v1h-1zM4 12h1v1h-1zM10 12h1v1h-1zM12 12h1v1h-1zM15 12h1v1h-1zM17 12h1v1h-1zM18 12h1v1h-1zM20 12h1v1h-1zM22 12h1v1h-1zM23 12h1v1h-1zM25 12h1v1h-1zM26 12h1v1h-1zM27 12h1v1h-1zM29 12h1v1h-1zM30 12h1v1h-1zM33 12h1v1h-1zM2 13h1v1h-1zM3 13h1v1h-1zM5 13h1v1h-1zM6 13h1v1h-1zM7 13h1v1h-1zM8 13h1v1h-1zM9 13h1v1h-1zM11 13h1v1h-1zM12 13h1v1h-1zM16 13h1v1h-1zM20 13h1v1h-1zM22 13h1v1h-1zM24 13h1v1h-1zM25 13h1v1h-1zM26 13h1v1h-1zM27 13h1v1h-1zM30 13h1v1h-1zM32 13h1v1h-1zM33 13h1v1h-1zM3 14h1v1h-1zM4 14h1v1h-1zM5 14h1v1h-1zM9 14h1v1h-1zM12 14h1v1h-1zM14 14h1v1h-1zM16 14h1v1h-1zM17 14h1v1h-1zM20 14h1v1h-1zM22 14h1v1h-1zM25 14h1v1h-1zM27 14h1v1h-1zM29 14h1v1h-1zM30 14h1v1h-1zM32 14h1v1h-1zM33 14h1v1h-1zM1 15h1v1h-1zM2 15h1v1h-1zM3 15h1v1h-1zM5 15h1v1h-1zM7 15h1v1h-1zM11 15h1v1h-1zM12 15h1v1h-1zM15 15h1v1h-1zM18 15h1v1h-1zM24 15h1v1h-1zM25 15h1v1h-1zM26 15h1v1h-1zM27 15h1v1h-1zM28 15h1v1h-1zM30 15h1v1h-1zM32 15h1v1h-1zM3 16h1v1h-1zM4 16h1v1h-1zM6 16h1v1h-1zM8 16h1v1h-1zM10 16h1v1h-1zM11 16h1v1h-1zM12 16h1v1h-1zM13 16h1v1h-1zM16 16h1v1h-1zM18 16h1v1h-1zM19 16h1v1h-1zM22 16h1v1h-1zM25 16h1v1h-1zM27 16h1v1h-1zM29 16h1v1h-1zM30 16h1v1h-1zM32 16h1v1h-1zM5 17h1v1h-1zM6 17h1v1h-1zM7 17h1v1h-1zM8 17h1v1h-1zM9 17h1v1h-1zM11 17h1v1h-1zM12 17h1v1h-1zM13 17h1v1h-1zM14 17h1v1h-1zM18 17h1v1h-1zM20 17h1v1h-1zM21 17h1v1h-1zM22 17h1v1h-1zM23 17h1v1h-1zM24 17h1v1h-1zM25 17h1v1h-1zM27 17h1v1h-1zM29 17h1v1h-1zM32 17h1v1h-1zM6 18h1v1h-1zM9 18h1v1h-1zM12 18h1v1h-1zM13 18h1v1h-1zM22 18h1v1h-1zM24 18h1v1h-1zM28 18h1v1h-1zM30 18h1v1h-1zM1 19h1v1h-1zM4 19h1v1h-1zM6 19h1v1h-1zM7 19h1v1h-1zM8 19h1v1h-1zM9 19h1v1h-1zM10 19h1v1h-1zM11 19h1v1h-1zM17 19h1v1h-1zM19 19h1v1h-1zM22 19h1v1h-1zM23 19h1v1h-1zM27 19h1v1h-1zM31 19h1v1h-1zM32 19h1v1h-1zM33 19h1v1h-1zM1 20h1v1h-1zM3 20h1v1h-1zM5 20h1v1h-1zM6 20h1v1h-1zM10 20h1v1h-1zM13 20h1v1h-1zM14 20h1v1h-1zM15 20h1v1h-1zM16 20h1v1h-1zM17 20h1v1h-1zM18 20h1v1h-1zM19 20h1v1h-1zM21 20h1v1h-1zM22 20h1v1h-1zM23 20h1v1h-1zM26 20h1v1h-1zM28 20h1v1h-1zM3 21h1v1h-1zM5 21h1v1h-1zM6 21h1v1h-1zM7 21h1v1h-1zM10 21h1v1h-1zM11 21h1v1h-1zM13 21h1v1h-1zM14 21h1v1h-1zM16 21h1v1h-1zM17 21h1v1h-1zM18 21h1v1h-1zM19 21h1v1h-1zM20 21h1v1h-1zM21 21h1v1h-1zM22 21h1v1h-1zM24 21h1v1h-1zM25 21h1v1h-1zM26 21h1v1h-1zM33 21h1v1h-1zM2 22h1v1h-1zM4 22h1v1h-1zM9 22h1v1h-1zM10 22h1v1h-1zM11 22h1v1h-1zM12 22h1v1h-1zM13 22h1v1h-1zM16 22h1v1h-1zM17 22h1v1h-1zM18 22h1v1h-1zM19 22h1v1h-1zM22 22h1v1h-1zM25 22h1v1h-1zM27 22h1v1h-1zM28 22h1v1h-1zM31 22h1v1h-1zM32 22h1v1h-1zM33 22h1v1h-1zM1 23h1v1h-1zM2 23h1v1h-1zM3 23h1v1h-1zM5 23h1v1h-1zM6 23h1v1h-1zM7 23h1v1h-1zM10 23h1v1h-1zM15 23h1v1h-1zM16 23h1v1h-1zM19 23h1v1h-1zM20 23h1v1h-1zM21 23h1v1h-1zM23 23h1v1h-1zM27 23h1v1h-1zM28 23h1v1h-1zM29 23h1v1h-1zM33 23h1v1h-1zM2 24h1v1h-1zM5 24h1v1h-1zM6 24h1v1h-1zM11 24h1v1h-1zM12 24h1v1h-1zM13 24h1v1h-1zM17 24h1v1h-1zM19 24h1v1h-1zM20 24h1v1h-1zM21 24h1v1h-1zM22 24h1v1h-1zM23 24h1v1h-1zM26 24h1v1h-1zM27 24h1v1h-1zM29 24h1v1h-1zM30 24h1v1h-1zM33 24h1v1h-1zM1 25h1v1h-1zM4 25h1v1h-1zM5 25h1v1h-1zM7 25h1v1h-1zM8 25h1v1h-1zM10 25h1v1h-1zM13 25h1v1h-1zM16 25h1v1h-1zM17 25h1v1h-1zM18 25h1v1h-1zM21 25h1v1h-1zM22 25h1v1h-1zM24 25h1v1h-1zM25 25h1v1h-1zM26 25h1v1h-1zM27 25h1v1h-1zM28 25h1v1h-1zM29 25h1v1h-1zM32 25h1v1h-1zM33 25h1v1h-1zM9 26h1v1h-1zM11 26h1v1h-1zM12 26h1v1h-1zM13 26h1v1h-1zM14 26h1v1h-1zM19 26h1v1h-1zM20 26h1v1h-1zM22 26h1v1h-1zM24 26h1v1h-1zM25 26h1v1h-1zM29 26h1v1h-1zM30 26h1v1h-1zM33 26h1v1h-1zM1 27h1v1h-1zM2 27h1v1h-1zM3 27h1v1h-1zM4 27h1v1h-1zM5 27h1v1h-1zM6 27h1v1h-1zM7 27h1v1h-1zM10 27h1v1h-1zM11 27h1v1h-1zM12 27h1v1h-1zM15 27h1v1h-1zM25 27h1v1h-1zM27 27h1v1h-1zM29 27h1v1h-1zM30 27h1v1h-1zM31 27h1v1h-1zM32 27h1v1h-1zM1 28h1v1h-1zM7 28h1v1h-1zM9 28h1v1h-1zM10 28h1v1h-1zM11 28h1v1h-1zM13 28h1v1h-1zM21 28h1v1h-1zM22 28h1v1h-1zM23 28h1v1h-1zM25 28h1v1h-1zM29 28h1v1h-1zM32 28h1v1h-1zM1 29h1v1h-1zM3 29h1v1h-1zM4 29h1v1h-1zM5 29h1v1h-1zM7 29h1v1h-1zM10 29h1v1h-1zM12 29h1v1h-1zM13 29h1v1h-1zM15 29h1v1h-1zM17 29h1v1h-1zM22 29h1v1h-1zM25 29h1v1h-1zM26 29h1v1h-1zM27 29h1v1h-1zM28 29h1v1h-1zM29 29h1v1h-1zM30 29h1v1h-1zM33 29h1v1h-1zM1 30h1v1h-1zM3 30h1v1h-1zM4 30h1v1h-1zM5 30h1v1h-1zM7 30h1v1h-1zM9 30h1v1h-1zM12 30h1v1h-1zM15 30h1v1h-1zM16 30h1v1h-1zM21 30h1v1h-1zM22 30h1v1h-1zM23 30h1v1h-1zM24 30h1v1h-1zM25 30h1v1h-1zM27 30h1v1h-1zM29 30h1v1h-1zM31 30h1v1h-1zM1 31h1v1h-1zM3 31h1v1h-1zM4 31h1v1h-1zM5 31h1v1h-1zM7 31h1v1h-1zM10 31h1v1h-1zM11 31h1v1h-1zM12 31h1v1h-1zM13 31h1v1h-1zM14 31h1v1h-1zM15 31h1v1h-1zM18 31h1v1h-1zM19 31h1v1h-1zM21 31h1v1h-1zM22 31h1v1h-1zM23 31h1v1h-1zM25 31h1v1h-1zM29 31h1v1h-1zM30 31h1v1h-1zM31 31h1v1h-1zM33 31h1v1h-1zM1 32h1v1h-1zM7 32h1v1h-1zM10 32h1v1h-1zM11 32h1v1h-1zM12 32h1v1h-1zM16 32h1v1h-1zM17 32h1v1h-1zM18 32h1v1h-1zM20 32h1v1h-1zM22 32h1v1h-1zM23 32h1v1h-1zM24 32h1v1h-1zM25 32h1v1h-1zM26 32h1v1h-1zM1 33h1v1h-1zM2 33h1v1h-1zM3 33h1v1h-1zM4 33h1v1h-1zM5 33h1v1h-1zM6 33h1v1h-1zM7 33h1v1h-1zM9 33h1v1h-1zM13 33h1v1h-1zM15 33h1v1h-1zM17 33h1v1h-1zM22 33h1v1h-1zM25 33h1v1h-1zM29 33h1v1h-1zM30 33h1v1h-1zM32 33h1v1h-1z"/></svg>